<svg width="48" height="48" viewBox="0 0 48 48" fill="none" xmlns="http://www.w3.org/2000/svg">
<path d="M32.25 6.75H15.75L17.0775 2.76C17.1291 2.61186 17.2253 2.48332 17.3529 2.39201C17.4804 2.3007 17.6331 2.25109 17.79 2.25H30.21C30.3669 2.25109 30.5196 2.3007 30.6471 2.39201C30.7747 2.48332 30.8709 2.61186 30.9225 2.76L32.25 6.75Z" fill="#CCCCCC"/>
<path d="M25.5 2.25C25.4925 3.7575 25.4575 5.2575 25.395 6.75H15.75L17.0775 2.76C17.1291 2.61186 17.2253 2.48332 17.3529 2.39201C17.4804 2.3007 17.6331 2.25109 17.79 2.25H25.5Z" fill="#E6E6E6"/>
<path d="M34.5 6H13.5C12.6716 6 12 6.67157 12 7.5V43.5C12 44.3284 12.6716 45 13.5 45H34.5C35.3284 45 36 44.3284 36 43.5V7.5C36 6.67157 35.3284 6 34.5 6Z" fill="#E6E6E6"/>
<path d="M25.4175 6C24.9877 19.2921 22.5424 32.442 18.165 45H13.5C13.1025 44.9988 12.7217 44.8404 12.4406 44.5594C12.1596 44.2783 12.0012 43.8975 12 43.5V7.5C12.0012 7.10253 12.1596 6.72168 12.4406 6.44063C12.7217 6.15958 13.1025 6.00117 13.5 6H25.4175Z" fill="#F2F2F2"/>
<path d="M15 13.5H33V19.5H15V13.5Z" fill="#0E9B47"/>
<path d="M33 9.75V13.5H15V9.75C15.0006 9.55126 15.0798 9.36083 15.2203 9.2203C15.3608 9.07978 15.5513 9.00057 15.75 9H32.25C32.4487 9.00057 32.6392 9.07978 32.7797 9.2203C32.9202 9.36083 32.9994 9.55126 33 9.75Z" fill="#333333"/>
<path d="M15 19.5H33V25.5H15V19.5Z" fill="#06C458"/>
<path d="M15 25.5H33V31.5H15V25.5Z" fill="#34D143"/>
<path d="M15 31.5H33V37.5H15V31.5Z" fill="#8AD64D"/>
<path d="M33 37.5V41.25C33 41.4489 32.921 41.6397 32.7803 41.7803C32.6397 41.921 32.4489 42 32.25 42H15.75C15.5511 42 15.3603 41.921 15.2197 41.7803C15.079 41.6397 15 41.4489 15 41.25V37.5H33Z" fill="#A6E063"/>
<path d="M22.6425 33.0825L24 26.7825H19.5L24.6075 18.6675L25.5 17.25L24 24.2175H28.5L22.5 33.75L22.6425 33.0825Z" fill="#FFC239"/>
<path d="M22.6425 33.0825L24 26.7825H19.5L24.6075 18.6675L23.25 24.9675H27.75L22.6425 33.0825Z" fill="#FFE266"/>
<path d="M25.2825 9C25.2 10.5075 25.095 12.0075 24.9525 13.5H15V9.75C15.0006 9.55126 15.0798 9.36083 15.2203 9.2203C15.3608 9.07978 15.5513 9.00057 15.75 9H25.2825Z" fill="#4D4D4D"/>
</svg>
