<svg width="33" height="48" viewBox="0 0 33 48" fill="none" xmlns="http://www.w3.org/2000/svg">
<path d="M12.7671 5.10103C12.6428 5.10103 12.5235 5.05165 12.4356 4.96374C12.3477 4.87583 12.2983 4.7566 12.2983 4.63228V0.46875C12.2983 0.34443 12.3477 0.225201 12.4356 0.137294C12.5235 0.049386 12.6428 0 12.7671 0C12.8914 0 13.0106 0.049386 13.0985 0.137294C13.1865 0.225201 13.2358 0.34443 13.2358 0.46875V4.63228C13.2358 4.7566 13.1865 4.87583 13.0985 4.96374C13.0106 5.05165 12.8914 5.10103 12.7671 5.10103Z" fill="#4D5C7A"/>
<path d="M7.49649 7.22651C7.43492 7.2266 7.37394 7.21451 7.31707 7.19094C7.26019 7.16737 7.20854 7.13279 7.16508 7.08917L4.22133 4.14542C4.1769 4.1021 4.14151 4.05038 4.11723 3.99327C4.09294 3.93617 4.08023 3.87481 4.07984 3.81275C4.07945 3.7507 4.09139 3.68918 4.11496 3.63177C4.13853 3.57437 4.17327 3.52221 4.21715 3.47833C4.26103 3.43446 4.31319 3.39973 4.3706 3.37617C4.42801 3.3526 4.48953 3.34068 4.55159 3.34107C4.61364 3.34147 4.675 3.35419 4.7321 3.37848C4.78921 3.40278 4.84092 3.43817 4.88424 3.48261L7.82799 6.42636C7.89352 6.49191 7.93815 6.57543 7.95623 6.66634C7.97431 6.75726 7.96503 6.85149 7.92955 6.93713C7.89408 7.02278 7.83402 7.09598 7.75695 7.14748C7.67989 7.19899 7.58918 7.2265 7.49649 7.22651Z" fill="#4D5C7A"/>
<path d="M5.27281 12.4565H1.10938C0.985055 12.4565 0.865826 12.4072 0.777918 12.3192C0.690011 12.2313 0.640625 12.1121 0.640625 11.9878C0.640625 11.8635 0.690011 11.7442 0.777918 11.6563C0.865826 11.5684 0.985055 11.519 1.10938 11.519H5.27281C5.39713 11.519 5.51636 11.5684 5.60427 11.6563C5.69218 11.7442 5.74156 11.8635 5.74156 11.9878C5.74156 12.1121 5.69218 12.2313 5.60427 12.3192C5.51636 12.4072 5.39713 12.4565 5.27281 12.4565Z" fill="#4D5C7A"/>
<path d="M24.2861 12.5952H20.1226C19.9982 12.5952 19.879 12.5458 19.7911 12.4579C19.7032 12.37 19.6538 12.2508 19.6538 12.1265C19.6538 12.0021 19.7032 11.8829 19.7911 11.795C19.879 11.7071 19.9982 11.6577 20.1226 11.6577H24.2861C24.4104 11.6577 24.5296 11.7071 24.6175 11.795C24.7055 11.8829 24.7548 12.0021 24.7548 12.1265C24.7548 12.2508 24.7055 12.37 24.6175 12.4579C24.5296 12.5458 24.4104 12.5952 24.2861 12.5952Z" fill="#4D5C7A"/>
<path d="M17.9971 7.32473C17.9045 7.32463 17.814 7.2971 17.737 7.24561C17.66 7.19412 17.6 7.12098 17.5645 7.03542C17.5291 6.94985 17.5197 6.8557 17.5378 6.76485C17.5558 6.674 17.6003 6.59052 17.6657 6.52494L20.6094 3.58119C20.6528 3.53676 20.7045 3.50138 20.7616 3.47709C20.8187 3.4528 20.88 3.4401 20.9421 3.43971C21.0042 3.43932 21.0657 3.45125 21.1231 3.47483C21.1805 3.4984 21.2326 3.53313 21.2765 3.57701C21.3204 3.6209 21.3551 3.67306 21.3787 3.73047C21.4022 3.78788 21.4142 3.8494 21.4138 3.91145C21.4134 3.97351 21.4007 4.03487 21.3764 4.09197C21.3521 4.14907 21.3167 4.20078 21.2722 4.2441L18.3285 7.18785C18.285 7.23138 18.2333 7.26587 18.1764 7.28936C18.1196 7.31285 18.0586 7.32487 17.9971 7.32473Z" fill="#4D5C7A"/>
<path d="M1.8815 29.6157C3.19878 32.9028 6.03865 39.3575 9.1339 43.5604C10.0519 44.7966 11.2474 45.8001 12.6242 46.4898C14.0009 47.1795 15.5204 47.5363 17.0602 47.5313H24.5997C27.5964 47.5313 30.3739 45.8702 31.7068 43.1863C31.7482 43.1031 31.7889 43.0183 31.8292 42.9322C32.5387 41.3846 32.901 39.7006 32.8907 37.9982V25.4647C32.8907 22.1064 27.0618 21.4125 27.0618 24.771C27.0618 19.3335 21.2329 19.3335 21.2329 24.771C21.9267 18.1093 14.9877 17.9706 15.6816 24.771V10.8925C15.6816 7.20347 9.85269 7.20347 9.85269 10.8925V29.767C9.85269 29.767 7.32415 26.0532 4.23453 26.0785C2.42722 26.0933 1.20922 27.9376 1.8815 29.6157Z" fill="#FFBE82"/>
</svg>
