<svg width="26" height="31" viewBox="0 0 26 31" fill="none" xmlns="http://www.w3.org/2000/svg">
<path d="M25.4667 9.01961L16.25 0.345098C16.0158 0.124404 15.6981 0.000274591 15.3667 0H11.25C10.0344 0 8.86864 0.454481 8.00909 1.26346C7.14955 2.07244 6.66667 3.16965 6.66667 4.31373V6.27451H4.58333C3.36776 6.27451 2.20197 6.72899 1.34243 7.53797C0.482885 8.34695 0 9.44416 0 10.5882V26.2745C0 27.4186 0.482885 28.5158 1.34243 29.3248C2.20197 30.1338 3.36776 30.5882 4.58333 30.5882H16.25C17.4656 30.5882 18.6314 30.1338 19.4909 29.3248C20.3504 28.5158 20.8333 27.4186 20.8333 26.2745V24.3137H21.25C22.4656 24.3137 23.6314 23.8592 24.4909 23.0503C25.3504 22.2413 25.8333 21.1441 25.8333 20V9.80392C25.8202 9.5084 25.6893 9.22837 25.4667 9.01961ZM16.6667 4.01569L21.5667 8.62745H16.6667V4.01569ZM18.3333 26.2745C18.3333 26.7945 18.1138 27.2933 17.7231 27.661C17.3324 28.0287 16.8025 28.2353 16.25 28.2353H4.58333C4.0308 28.2353 3.5009 28.0287 3.11019 27.661C2.71949 27.2933 2.5 26.7945 2.5 26.2745V10.5882C2.5 10.0682 2.71949 9.56947 3.11019 9.20175C3.5009 8.83403 4.0308 8.62745 4.58333 8.62745H6.66667V20C6.66667 21.1441 7.14955 22.2413 8.00909 23.0503C8.86864 23.8592 10.0344 24.3137 11.25 24.3137H18.3333V26.2745ZM21.25 21.9608H11.25C10.6975 21.9608 10.1676 21.7542 9.77686 21.3865C9.38616 21.0188 9.16667 20.52 9.16667 20V4.31373C9.16667 3.79369 9.38616 3.29496 9.77686 2.92724C10.1676 2.55952 10.6975 2.35294 11.25 2.35294H14.1667V9.80392C14.171 10.1147 14.3041 10.4116 14.5376 10.6313C14.771 10.8511 15.0865 10.9763 15.4167 10.9804H23.3333V20C23.3333 20.52 23.1138 21.0188 22.7231 21.3865C22.3324 21.7542 21.8025 21.9608 21.25 21.9608Z" fill="white"/>
</svg>
