<svg width="10" height="10" viewBox="0 0 10 10" fill="none" xmlns="http://www.w3.org/2000/svg">
<path d="M5.88327 4.99997L9.5666 1.31663C9.62801 1.25941 9.67726 1.19041 9.71142 1.11375C9.74558 1.03708 9.76395 0.95432 9.76543 0.870401C9.76691 0.786482 9.75148 0.703124 9.72004 0.625301C9.68861 0.547477 9.64182 0.476782 9.58247 0.417434C9.52312 0.358085 9.45243 0.311297 9.3746 0.279863C9.29678 0.248429 9.21342 0.232992 9.1295 0.234472C9.04558 0.235953 8.96282 0.254321 8.88616 0.288481C8.80949 0.322641 8.74049 0.371893 8.68327 0.433299L4.99994 4.11663L1.3166 0.433299C1.19813 0.322899 1.04142 0.262796 0.879503 0.265653C0.717585 0.268509 0.563098 0.334103 0.448587 0.448614C0.334076 0.563125 0.268482 0.717612 0.265625 0.87953C0.262769 1.04145 0.322871 1.19815 0.433271 1.31663L4.1166 4.99997L0.433271 8.6833C0.316229 8.80049 0.250488 8.95934 0.250488 9.12497C0.250488 9.29059 0.316229 9.44944 0.433271 9.56663C0.550459 9.68367 0.709313 9.74942 0.874938 9.74942C1.04056 9.74942 1.19942 9.68367 1.3166 9.56663L4.99994 5.8833L8.68327 9.56663C8.80046 9.68367 8.95931 9.74942 9.12494 9.74942C9.29056 9.74942 9.44942 9.68367 9.5666 9.56663C9.68365 9.44944 9.74939 9.29059 9.74939 9.12497C9.74939 8.95934 9.68365 8.80049 9.5666 8.6833L5.88327 4.99997Z" fill="#433D3A"/>
</svg>
