<svg width="7" height="12" viewBox="0 0 7 12" fill="none" xmlns="http://www.w3.org/2000/svg">
<path d="M1.00007 11.7501C0.901532 11.7506 0.803891 11.7313 0.712879 11.6936C0.621867 11.6558 0.539317 11.6002 0.470073 11.5301C0.329622 11.3895 0.250732 11.1988 0.250732 11.0001C0.250732 10.8013 0.329622 10.6107 0.470073 10.4701L4.94007 6.00009L0.470073 1.53009C0.337593 1.38792 0.265469 1.19987 0.268897 1.00557C0.272325 0.811267 0.351038 0.625882 0.488451 0.488469C0.625864 0.351056 0.811249 0.272344 1.00555 0.268916C1.19985 0.265487 1.3879 0.33761 1.53007 0.47009L6.53007 5.47009C6.67052 5.61072 6.74941 5.80134 6.74941 6.00009C6.74941 6.19884 6.67052 6.38946 6.53007 6.53009L1.53007 11.5301C1.46083 11.6002 1.37828 11.6558 1.28727 11.6936C1.19625 11.7313 1.09861 11.7506 1.00007 11.7501Z" fill="white" fill-opacity="0.32"/>
</svg>
